<?xml version="1.0" standalone="no"?>
<!DOCTYPE svg PUBLIC "-//W3C//DTD SVG 20010904//EN"
 "http://www.w3.org/TR/2001/REC-SVG-20010904/DTD/svg10.dtd">
<svg version="1.0" xmlns="http://www.w3.org/2000/svg"
 width="96.000000pt" height="96.000000pt" viewBox="0 0 96.000000 96.000000"
 preserveAspectRatio="xMidYMid meet">

<g transform="translate(0.000000,96.000000) scale(0.100000,-0.100000)"
fill="#000000" stroke="none">
<path d="M410 864 c-55 -24 -99 -73 -115 -128 -21 -70 -19 -119 4 -140 19 -18
20 -17 23 35 l3 52 118 40 119 39 39 -38 c36 -35 39 -42 39 -93 l0 -54 21 19
c19 17 21 27 16 81 -6 76 -31 122 -81 148 -21 11 -42 28 -47 38 -13 22 -89 23
-139 1z"/>
<path d="M384 589 c-10 -17 13 -36 27 -22 12 12 4 33 -11 33 -5 0 -12 -5 -16
-11z"/>
<path d="M544 589 c-10 -17 13 -36 27 -22 12 12 4 33 -11 33 -5 0 -12 -5 -16
-11z"/>
<path d="M331 322 c-65 -22 -136 -96 -155 -163 -26 -85 -39 -79 174 -79 160 0
190 2 190 15 0 8 17 32 38 54 l38 40 -18 36 c-31 60 -1 78 34 20 20 -35 22
-36 67 -29 25 4 48 8 50 10 11 10 -50 59 -104 86 -55 26 -61 27 -70 12 -50
-84 -137 -85 -190 -2 -9 14 -14 14 -54 0z"/>
</g>
</svg>
